# xmcd
#
# Track frame offsets:
#	150
#	9714
#	22091
#	34775
#	46295
#	61779
#	72780
#	85281
#	101237
#	116561
#	134932
#	147725
#	159658
#	169493
#	178303
#	190711
#	203474
#	215657
#	225831
#	242284
#	253706
#	265357
#
# Disc length: 3680 seconds
#
# Revision: 0
# Processed by: cddbd v1.5.2PL0 Copyright (c) Steve Scherf et al.
# Submitted via: EasyCDDAExtractor 16.0.6.1
#
DISCID=460e5e16
DTITLE=Various Artist - Country Sunrise [Disc 09]
DYEAR=2006
DGENRE=Country
TTITLE0=Bob Luman - Let's Think About Living
TTITLE1=Charlie Rich - Behind Closed Doors
TTITLE2=Dickey Lee - Never Ending Song Of Love
TTITLE3=Freddy Fender - Before The Next Teardrop Falls
TTITLE4=Juice Newton - Queen Of Hearts
TTITLE5=Bill Anderson - Quits
TTITLE6=Larry Gatlin - Broken Lady
TTITLE7=Lynn Anderson - You Needed Me
TTITLE8=Tommy Cash - He Stopped Loving Her Today
TTITLE9=Skeeter Davis - Just When I Needed You Most
TTITLE10=Johnny Lee - Bet Your Heart On Me
TTITLE11=Del Reeves - Girl On The Billboard
TTITLE12=Johnny Rodriguez - Riding My Thumb To Mexico
TTITLE13=Roger Miller - England Swings
TTITLE14=Wynn Stewart - Wishful Thinking
TTITLE15=Ed Bruce - Ever Never Lovin' You
TTITLE16=Merle Haggard - Everybody's Had The Blues
TTITLE17=Warner Mack - The Bridge Washed Out
TTITLE18=Bubba James Hudson - Slow Dancin'
TTITLE19=Eddy Raven - I'm Gonna Get You
TTITLE20=Tammy Wynette - D.I.V.O.R.C.E
TTITLE21=The Fendermen - Mule Skinner Blues
EXTD=
EXTT0=
EXTT1=
EXTT2=
EXTT3=
EXTT4=
EXTT5=
EXTT6=
EXTT7=
EXTT8=
EXTT9=
EXTT10=
EXTT11=
EXTT12=
EXTT13=
EXTT14=
EXTT15=
EXTT16=
EXTT17=
EXTT18=
EXTT19=
EXTT20=
EXTT21=
PLAYORDER=
